<svg xmlns="http://www.w3.org/2000/svg" width="512" height="512" viewBox="0 0 512 512">
  <!-- Full-bleed background — Play Store applies its own mask/rounding -->
  <rect width="512" height="512" fill="#FAF6F0"/>

  <!-- Hourglass centered and large, no text -->
  <g transform="translate(256,256) scale(14) translate(-12,-12)">
    <path d="M7 4 L17 4 C17.5 4 17.8 4.2 17.8 4.4 L17.8 4.4 C17.8 4.6 17.5 4.8 17 4.8 L16 4.8 C16 8 14.4 10.4 12 12 C14.4 13.6 16 16 16 19.2 L17 19.2 C17.5 19.2 17.8 19.4 17.8 19.6 L17.8 19.6 C17.8 19.8 17.5 20 17 20 L7 20 C6.5 20 6.2 19.8 6.2 19.6 L6.2 19.6 C6.2 19.4 6.5 19.2 7 19.2 L8 19.2 C8 16 9.6 13.6 12 12 C9.6 10.4 8 8 8 4.8 L7 4.8 C6.5 4.8 6.2 4.6 6.2 4.4 L6.2 4.4 C6.2 4.2 6.5 4 7 4 Z" fill="#8B4157"/>
    <path d="M9.4 5.8 C9.4 8.4 10.5 10.6 12 12 C13.5 10.6 14.6 8.4 14.6 5.8 Z" fill="#FAF6F0"/>
    <path d="M9.4 18.2 C9.4 15.6 10.5 13.4 12 12 C13.5 13.4 14.6 15.6 14.6 18.2 Z" fill="#FAF6F0"/>
    <path d="M9.7 18.2 Q12 15.3 14.3 18.2 Z" fill="#C8A882"/>
  </g>
</svg>
