<svg xmlns="http://www.w3.org/2000/svg" width="2732" height="2732" viewBox="0 0 2732 2732">
  <!-- Parchment background -->
  <rect width="2732" height="2732" fill="#FAF6F0"/>

  <!-- Centered hourglass icon -->
  <g transform="translate(1366, 1200) scale(28)" stroke="#8B4157" stroke-width="1.8" stroke-linecap="round" stroke-linejoin="round" fill="none">
    <!-- Top and bottom bars -->
    <line x1="-7" y1="-9" x2="7" y2="-9"/>
    <line x1="-7" y1="9" x2="7" y2="9"/>
    <!-- Glass shape -->
    <path d="M-5 -9 C-5 -9 -5 -3 0 0 C-5 3 -5 9 -5 9"/>
    <path d="M5 -9 C5 -9 5 -3 0 0 C5 3 5 9 5 9"/>
    <!-- Sand top -->
    <path d="M-2.5 -5.5 L2.5 -5.5" stroke-width="1.2" opacity="0.5"/>
    <!-- Sand falling -->
    <line x1="0" y1="0" x2="0" y2="3" stroke-width="1" opacity="0.4"/>
    <!-- Sand pile bottom -->
    <path d="M-3 7 Q0 4.5 3 7" stroke-width="1.2" fill="#A8596E" fill-opacity="0.25" opacity="0.6"/>
  </g>

  <!-- App name -->
  <text x="1366" y="1620" text-anchor="middle" font-family="Georgia, serif" font-size="140" font-weight="700" fill="#1C1917" letter-spacing="-2">Chronos</text>

  <!-- Tagline -->
  <text x="1366" y="1700" text-anchor="middle" font-family="system-ui, sans-serif" font-size="52" font-weight="400" fill="#78716C">Learn the story of humanity</text>
</svg>
